  0
SECTION
  2
HEADER
  9
$ACADVER
  1
AC1009
  9
$INSBASE
 10
0.0
 20
0.0
 30
0.0
  9
$EXTMIN
 10
0.0
 20
0.0
 30
0.0
  9
$EXTMAX
 10
0.0
 20
0.0
 30
0.0
  0
ENDSEC
  0
SECTION
  2
TABLES
  0
TABLE
  2
VPORT
 70
0
  0
ENDTAB
  0
TABLE
  2
LTYPE
 70
1
  0
LTYPE
  2
CONTINUOUS
 70
0
  3
Solid line
 72
65
 73
0
 40
0.0
  0
ENDTAB
  0
TABLE
  2
LAYER
 70
1
  0
LAYER
  2
0
 70
64
 62
7
  6
continuous
  0
ENDTAB
  0
TABLE
  2
STYLE
 70
1
  0
STYLE
  2
STANDARD
 70
0
 40
0
 41
1.0
 50
0.0
 71
0
 42
1
 3
ARIAL.TTF
 4

  0
ENDTAB
  0
TABLE
  2
VIEW
 70
0
  0
ENDTAB
  0
ENDSEC
  0
SECTION
  2
BLOCKS
  0
BLOCK
  8
DXF
  2
SHAPE2DVIEW002
 70
0
 10
0.0
 20
0.0
 30
0.0
  3
SHAPE2DVIEW002
  0
LINE
  8
DXF
 62
0
 10
23.00000000000327
 20
29.44486372867277
 30
0.0
 11
23.00000000000327
 21
1.5
 31
0.0
  0
ARC
  8
DXF
 62
0
 10
17.000000000003276
 20
29.44486372867277
 30
0.0
 40
6.0
 50
-0.0
 51
119.99999999999997
  0
LINE
  8
DXF
 62
0
 10
-10.200961894323342
 20
20.668584287042066
 30
0.0
 11
14.000000000003276
 21
34.64101615137941
 31
0.0
  0
LINE
  8
DXF
 62
0
 10
20.69354161583212
 20
3.720416564991047
 30
0.0
 11
23.00000000000327
 21
1.5
 31
0.0
  0
LINE
  8
DXF
 62
0
 10
-10.200961894324989
 20
20.668584287044915
 30
0.0
 11
-7.124795549973387
 21
19.781341016076617
 31
0.0
  0
ARC
  8
DXF
 62
0
 10
20.000000000003265
 20
3.0
 30
0.0
 40
1.0
 50
46.08888353025211
 51
-180.0
  0
ARC
  8
DXF
 62
0
 10
-7.401923788648326
 20
18.8205080756916
 30
0.0
 40
1.0
 50
-59.99999999999988
 51
73.91111646974797
  0
LINE
  8
DXF
 62
0
 10
19.000000000003265
 20
-3.0
 30
0.0
 11
19.000000000003265
 21
3.0
 31
0.0
  0
LINE
  8
DXF
 62
0
 10
-6.901923788648327
 20
17.95448267190716
 30
0.0
 11
-12.098076211354957
 21
14.95448267190716
 31
0.0
  0
ARC
  8
DXF
 62
0
 10
20.000000000003265
 20
-3.0
 30
0.0
 40
1.0
 50
-180.0
 51
-46.08888353025209
  0
ARC
  8
DXF
 62
0
 10
-12.598076211354957
 20
15.820508075691595
 30
0.0
 40
1.0
 50
166.08888353025213
 51
-59.99999999999988
  0
LINE
  8
DXF
 62
0
 10
23.00000000000327
 20
-1.5
 30
0.0
 11
20.69354161583212
 21
-3.720416564991047
 31
0.0
  0
LINE
  8
DXF
 62
0
 10
-13.568746065858754
 20
16.06092445108557
 30
0.0
 11
-12.799038105678301
 21
19.168584287044915
 31
0.0
  0
LINE
  8
DXF
 62
0
 10
23.00000000000327
 20
-1.5
 30
0.0
 11
23.00000000000327
 21
-29.44486372867277
 31
0.0
  0
LINE
  8
DXF
 62
0
 10
-36.99999999999999
 20
5.196152422706626
 30
0.0
 11
-12.799038105676658
 21
19.16858428704207
 31
0.0
  0
ARC
  8
DXF
 62
0
 10
17.00000000000327
 20
-29.444863728672765
 30
0.0
 40
6.0
 50
-119.99999999999997
 51
-0.0
  0
ARC
  8
DXF
 62
0
 10
-33.99999999999999
 20
-1.5015534799913654e-15
 30
0.0
 40
6.0
 50
120.00000000000007
 51
-120.00000000000007
  0
LINE
  8
DXF
 62
0
 10
14.000000000003267
 20
-34.641016151379404
 30
0.0
 11
-10.200961894323335
 21
-20.668584287042084
 31
0.0
  0
LINE
  8
DXF
 62
0
 10
-12.799038105676658
 20
-19.16858428704208
 30
0.0
 11
-37.0
 21
-5.196152422706632
 31
0.0
  0
LINE
  8
DXF
 62
0
 10
-7.124795549973369
 20
-19.781341016076624
 30
0.0
 11
-10.200961894324971
 21
-20.668584287044922
 31
0.0
  0
LINE
  8
DXF
 62
0
 10
-12.799038105678289
 20
-19.168584287044922
 30
0.0
 11
-13.568746065858742
 21
-16.060924451085576
 31
0.0
  0
ARC
  8
DXF
 62
0
 10
-7.401923788648311
 20
-18.820508075691603
 30
0.0
 40
1.0
 50
-73.91111646974787
 51
59.99999999999992
  0
ARC
  8
DXF
 62
0
 10
-12.598076211354943
 20
-15.820508075691604
 30
0.0
 40
1.0
 50
60.00000000000002
 51
-166.08888353025202
  0
LINE
  8
DXF
 62
0
 10
-12.098076211354947
 20
-14.954482671907165
 30
0.0
 11
-6.901923788648315
 21
-17.954482671907165
 31
0.0
  0
CIRCLE
  8
DXF
 62
0
 10
17.934975634651565
 20
-31.064289031726386
 30
0.0
 40
1.5
  0
LINE
  8
DXF
 62
0
 10
-3.3741199194019664
 20
-16.094147131234408
 30
0.0
 11
-4.624119885994752
 21
-18.25921065998316
 31
0.0
  0
LINE
  8
DXF
 62
0
 10
9.399754900215717
 20
-23.469146934131864
 30
0.0
 11
-3.3741199194019664
 21
-16.094147131234408
 31
0.0
  0
LINE
  8
DXF
 62
0
 10
-4.624119885994752
 20
-18.25921065998316
 30
0.0
 11
8.149754933622932
 21
-25.634210462880617
 31
0.0
  0
LINE
  8
DXF
 62
0
 10
8.149754933622932
 20
-25.634210462880617
 30
0.0
 11
9.399754900215717
 21
-23.469146934131864
 31
0.0
  0
LINE
  8
DXF
 62
0
 10
15.625000000000004
 20
-5.125000000000001
 30
0.0
 11
15.625000000000009
 21
-19.875000000000007
 31
0.0
  0
LINE
  8
DXF
 62
0
 10
18.124999999999996
 20
-5.125
 30
0.0
 11
15.625000000000004
 21
-5.125000000000001
 31
0.0
  0
LINE
  8
DXF
 62
0
 10
15.625000000000009
 20
-19.875000000000007
 30
0.0
 11
18.125
 21
-19.875000000000007
 31
0.0
  0
LINE
  8
DXF
 62
0
 10
18.125
 20
-19.875000000000007
 30
0.0
 11
18.124999999999996
 21
-5.125
 31
0.0
  0
LINE
  8
DXF
 62
0
 10
-25.02475490021577
 20
-3.594146934131913
 30
0.0
 11
-26.274754900215758
 21
-5.759210443593009
 31
0.0
  0
LINE
  8
DXF
 62
0
 10
-12.250880194395261
 20
-10.969146934131862
 30
0.0
 11
-25.02475490021577
 21
-3.5941469341319134
 31
0.0
  0
LINE
  8
DXF
 62
0
 10
-26.274754900215758
 20
-5.759210443593009
 30
0.0
 11
-13.500880194395247
 21
-13.134210443592957
 31
0.0
  0
LINE
  8
DXF
 62
0
 10
-13.500880194395247
 20
-13.134210443592957
 30
0.0
 11
-12.250880194395261
 21
-10.969146934131862
 31
0.0
  0
CIRCLE
  8
DXF
 62
0
 10
-35.869951269303144
 20
-1.240784606104241e-14
 30
0.0
 40
1.5
  0
LINE
  8
DXF
 62
0
 10
15.625033789707352
 20
19.87500000000001
 30
0.0
 11
15.625
 21
5.125
 31
0.0
  0
LINE
  8
DXF
 62
0
 10
18.125033789707345
 20
19.87499427293097
 30
0.0
 11
15.625033789707352
 21
19.87500000000001
 31
0.0
  0
LINE
  8
DXF
 62
0
 10
15.625
 20
5.125000000000001
 30
0.0
 11
18.124999999999993
 21
5.124994272930958
 31
0.0
  0
LINE
  8
DXF
 62
0
 10
18.124999999999993
 20
5.124994272930958
 30
0.0
 11
18.125033789707345
 21
19.87499427293097
 31
0.0
  0
CIRCLE
  8
DXF
 62
0
 10
17.934975634651558
 20
31.064289031726375
 30
0.0
 40
1.5
  0
LINE
  8
DXF
 62
0
 10
-4.624119805604803
 20
18.259210443593005
 30
0.0
 11
-3.374119805604816
 21
16.09414693413191
 31
0.0
  0
LINE
  8
DXF
 62
0
 10
8.149754900215706
 20
25.634210443592956
 30
0.0
 11
-4.624119805604803
 21
18.259210443593005
 31
0.0
  0
LINE
  8
DXF
 62
0
 10
-3.374119805604816
 20
16.09414693413191
 30
0.0
 11
9.39975490021569
 21
23.46914693413186
 31
0.0
  0
LINE
  8
DXF
 62
0
 10
9.399754900215692
 20
23.46914693413186
 30
0.0
 11
8.149754900215706
 21
25.634210443592956
 31
0.0
  0
LINE
  8
DXF
 62
0
 10
-26.27475490021573
 20
5.759210443592922
 30
0.0
 11
-25.02475490021573
 21
3.5941469341318326
 31
0.0
  0
LINE
  8
DXF
 62
0
 10
-13.500880194395261
 20
13.13421044359294
 30
0.0
 11
-26.27475490021573
 21
5.759210443592921
 31
0.0
  0
LINE
  8
DXF
 62
0
 10
-25.02475490021573
 20
3.594146934131833
 30
0.0
 11
-12.250880194395263
 21
10.969146934131851
 31
0.0
  0
LINE
  8
DXF
 62
0
 10
-12.250880194395263
 20
10.969146934131851
 30
0.0
 11
-13.500880194395261
 21
13.13421044359294
 31
0.0
  0
ENDBLK
  0
ENDSEC
  0
SECTION
  2
ENTITIES
  0
INSERT
  2
SHAPE2DVIEW002
  8
DXF
 62
0
 10
0.0
 20
0.0
 30
0.0
  0
ENDSEC
  0
EOF
