  0
SECTION
  2
HEADER
  9
$ACADVER
  1
AC1009
  9
$INSBASE
 10
0.0
 20
0.0
 30
0.0
  9
$EXTMIN
 10
0.0
 20
0.0
 30
0.0
  9
$EXTMAX
 10
0.0
 20
0.0
 30
0.0
  0
ENDSEC
  0
SECTION
  2
TABLES
  0
TABLE
  2
VPORT
 70
0
  0
ENDTAB
  0
TABLE
  2
LTYPE
 70
1
  0
LTYPE
  2
CONTINUOUS
 70
0
  3
Solid line
 72
65
 73
0
 40
0.0
  0
ENDTAB
  0
TABLE
  2
LAYER
 70
1
  0
LAYER
  2
0
 70
64
 62
7
  6
continuous
  0
ENDTAB
  0
TABLE
  2
STYLE
 70
1
  0
STYLE
  2
STANDARD
 70
0
 40
0
 41
1.0
 50
0.0
 71
0
 42
1
 3
ARIAL.TTF
 4

  0
ENDTAB
  0
TABLE
  2
VIEW
 70
0
  0
ENDTAB
  0
ENDSEC
  0
SECTION
  2
BLOCKS
  0
BLOCK
  8
DXF
  2
SHAPE2DVIEW003
 70
0
 10
0.0
 20
0.0
 30
0.0
  3
SHAPE2DVIEW003
  0
LINE
  8
DXF
 62
0
 10
-26.63028116637149
 20
-14.999999999999996
 30
0.0
 11
-26.63028116637149
 21
-29.999999999999996
 31
0.0
  0
LINE
  8
DXF
 62
0
 10
-26.63028116637149
 20
-15.0
 30
0.0
 11
-29.63028116637149
 21
-15.0
 31
0.0
  0
LINE
  8
DXF
 62
0
 10
-29.63028116637149
 20
-30.0
 30
0.0
 11
-26.63028116637149
 21
-30.0
 31
0.0
  0
LINE
  8
DXF
 62
0
 10
-29.63028116637149
 20
-15.0
 30
0.0
 11
-29.63028116637149
 21
0.0
 31
0.0
  0
LINE
  8
DXF
 62
0
 10
-29.63028116637149
 20
-45.0
 30
0.0
 11
-29.63028116637149
 21
-30.0
 31
0.0
  0
LINE
  8
DXF
 62
0
 10
-26.63028116637149
 20
-45.0
 30
0.0
 11
-29.63028116637149
 21
-45.0
 31
0.0
  0
LINE
  8
DXF
 62
0
 10
-26.63028116637149
 20
-45.0
 30
0.0
 11
-26.63028116637149
 21
-60.0
 31
0.0
  0
LINE
  8
DXF
 62
0
 10
-29.63028116637149
 20
-60.0
 30
0.0
 11
-26.63028116637149
 21
-60.0
 31
0.0
  0
LINE
  8
DXF
 62
0
 10
-29.63028116637149
 20
-75.0
 30
0.0
 11
-29.63028116637149
 21
-60.0
 31
0.0
  0
LINE
  8
DXF
 62
0
 10
-26.63028116637149
 20
-75.0
 30
0.0
 11
-29.63028116637149
 21
-75.0
 31
0.0
  0
LINE
  8
DXF
 62
0
 10
-26.63028116637149
 20
-75.0
 30
0.0
 11
-26.63028116637149
 21
-90.0
 31
0.0
  0
LINE
  8
DXF
 62
0
 10
-29.63028116637149
 20
-90.0
 30
0.0
 11
-26.63028116637149
 21
-90.0
 31
0.0
  0
LINE
  8
DXF
 62
0
 10
-29.63028116637149
 20
-105.0
 30
0.0
 11
-29.63028116637149
 21
-90.0
 31
0.0
  0
LINE
  8
DXF
 62
0
 10
-26.63028116637149
 20
-105.0
 30
0.0
 11
-29.63028116637149
 21
-105.0
 31
0.0
  0
LINE
  8
DXF
 62
0
 10
-26.63028116637149
 20
-105.0
 30
0.0
 11
-26.63028116637149
 21
-120.0
 31
0.0
  0
LINE
  8
DXF
 62
0
 10
-29.63028116637149
 20
-120.0
 30
0.0
 11
-26.63028116637149
 21
-120.0
 31
0.0
  0
LINE
  8
DXF
 62
0
 10
-29.63028116637149
 20
-135.0
 30
0.0
 11
-29.63028116637149
 21
-120.0
 31
0.0
  0
LINE
  8
DXF
 62
0
 10
-29.63028116637149
 20
-135.0
 30
0.0
 11
-20.0
 21
-135.0
 31
0.0
  0
LINE
  8
DXF
 62
0
 10
-20.0
 20
-135.0
 30
0.0
 11
-20.0
 21
-138.0
 31
0.0
  0
LINE
  8
DXF
 62
0
 10
-20.0
 20
-138.0
 30
0.0
 11
-5.0
 21
-138.0
 31
0.0
  0
LINE
  8
DXF
 62
0
 10
-5.0
 20
-135.0
 30
0.0
 11
-5.0
 21
-138.0
 31
0.0
  0
LINE
  8
DXF
 62
0
 10
-5.0
 20
-135.0
 30
0.0
 11
5.0
 21
-135.0
 31
0.0
  0
LINE
  8
DXF
 62
0
 10
5.0
 20
-135.0
 30
0.0
 11
5.0
 21
-138.0
 31
0.0
  0
LINE
  8
DXF
 62
0
 10
5.0
 20
-138.0
 30
0.0
 11
20.0
 21
-138.0
 31
0.0
  0
LINE
  8
DXF
 62
0
 10
20.0
 20
-135.0
 30
0.0
 11
20.0
 21
-138.0
 31
0.0
  0
LINE
  8
DXF
 62
0
 10
20.0
 20
-135.0
 30
0.0
 11
26.63028116637149
 21
-135.0
 31
0.0
  0
LINE
  8
DXF
 62
0
 10
26.63028116637149
 20
-120.0
 30
0.0
 11
26.63028116637149
 21
-135.0
 31
0.0
  0
LINE
  8
DXF
 62
0
 10
26.63028116637149
 20
-120.0
 30
0.0
 11
29.63028116637148
 21
-120.0
 31
0.0
  0
LINE
  8
DXF
 62
0
 10
29.63028116637148
 20
-120.0
 30
0.0
 11
29.63028116637148
 21
-105.0
 31
0.0
  0
LINE
  8
DXF
 62
0
 10
29.63028116637148
 20
-105.0
 30
0.0
 11
26.63028116637149
 21
-105.0
 31
0.0
  0
LINE
  8
DXF
 62
0
 10
26.63028116637149
 20
-90.0
 30
0.0
 11
26.63028116637149
 21
-105.0
 31
0.0
  0
LINE
  8
DXF
 62
0
 10
-29.63028116637149
 20
3.4139358007223564e-15
 30
0.0
 11
-20.0
 21
3.4139358007223564e-15
 31
0.0
  0
LINE
  8
DXF
 62
0
 10
26.63028116637149
 20
3.4139358007223564e-15
 30
0.0
 11
26.63028116637149
 21
-14.999999999999996
 31
0.0
  0
LINE
  8
DXF
 62
0
 10
20.0
 20
3.4139358007223564e-15
 30
0.0
 11
26.63028116637149
 21
3.4139358007223564e-15
 31
0.0
  0
LINE
  8
DXF
 62
0
 10
20.0
 20
3.4139358007223556e-15
 30
0.0
 11
20.0
 21
3.0000000000000036
 31
0.0
  0
LINE
  8
DXF
 62
0
 10
20.0
 20
3.0000000000000036
 30
0.0
 11
5.0
 21
3.0000000000000036
 31
0.0
  0
LINE
  8
DXF
 62
0
 10
5.0
 20
3.4139358007223556e-15
 30
0.0
 11
5.0
 21
3.0000000000000036
 31
0.0
  0
LINE
  8
DXF
 62
0
 10
-5.0
 20
3.4139358007223564e-15
 30
0.0
 11
5.0
 21
3.4139358007223564e-15
 31
0.0
  0
LINE
  8
DXF
 62
0
 10
-5.0
 20
3.4139358007223556e-15
 30
0.0
 11
-5.0
 21
3.0000000000000036
 31
0.0
  0
LINE
  8
DXF
 62
0
 10
-5.0
 20
3.0000000000000036
 30
0.0
 11
-20.0
 21
3.0000000000000036
 31
0.0
  0
LINE
  8
DXF
 62
0
 10
-20.0
 20
3.4139358007223556e-15
 30
0.0
 11
-20.0
 21
3.0000000000000036
 31
0.0
  0
LINE
  8
DXF
 62
0
 10
29.63028116637148
 20
-15.0
 30
0.0
 11
26.63028116637149
 21
-15.0
 31
0.0
  0
LINE
  8
DXF
 62
0
 10
29.63028116637148
 20
-30.0
 30
0.0
 11
29.63028116637148
 21
-15.0
 31
0.0
  0
LINE
  8
DXF
 62
0
 10
26.63028116637149
 20
-29.999999999999996
 30
0.0
 11
26.63028116637149
 21
-45.0
 31
0.0
  0
LINE
  8
DXF
 62
0
 10
26.63028116637149
 20
-30.0
 30
0.0
 11
29.63028116637148
 21
-30.0
 31
0.0
  0
LINE
  8
DXF
 62
0
 10
29.63028116637148
 20
-45.0
 30
0.0
 11
26.63028116637149
 21
-45.0
 31
0.0
  0
LINE
  8
DXF
 62
0
 10
29.63028116637148
 20
-60.0
 30
0.0
 11
29.63028116637148
 21
-45.0
 31
0.0
  0
LINE
  8
DXF
 62
0
 10
26.63028116637149
 20
-60.0
 30
0.0
 11
26.63028116637149
 21
-75.0
 31
0.0
  0
LINE
  8
DXF
 62
0
 10
26.63028116637149
 20
-60.0
 30
0.0
 11
29.63028116637148
 21
-60.0
 31
0.0
  0
LINE
  8
DXF
 62
0
 10
29.63028116637148
 20
-75.0
 30
0.0
 11
26.63028116637149
 21
-75.0
 31
0.0
  0
LINE
  8
DXF
 62
0
 10
26.63028116637149
 20
-90.0
 30
0.0
 11
29.63028116637148
 21
-90.0
 31
0.0
  0
LINE
  8
DXF
 62
0
 10
29.63028116637148
 20
-90.0
 30
0.0
 11
29.63028116637148
 21
-75.0
 31
0.0
  0
LINE
  8
DXF
 62
0
 10
-5.125
 20
-14.999999999999986
 30
0.0
 11
-5.125
 21
-17.749999999999986
 31
0.0
  0
LINE
  8
DXF
 62
0
 10
-5.125
 20
-17.749999999999986
 30
0.0
 11
-19.875
 21
-17.749999999999986
 31
0.0
  0
LINE
  8
DXF
 62
0
 10
-19.875
 20
-17.749999999999986
 30
0.0
 11
-19.875
 21
-14.999999999999986
 31
0.0
  0
LINE
  8
DXF
 62
0
 10
-19.875
 20
-14.999999999999986
 30
0.0
 11
-5.125
 21
-14.999999999999986
 31
0.0
  0
LINE
  8
DXF
 62
0
 10
19.875
 20
-14.999999999999986
 30
0.0
 11
19.875
 21
-17.749999999999986
 31
0.0
  0
LINE
  8
DXF
 62
0
 10
19.875
 20
-17.749999999999986
 30
0.0
 11
5.125
 21
-17.749999999999986
 31
0.0
  0
LINE
  8
DXF
 62
0
 10
5.125
 20
-17.749999999999986
 30
0.0
 11
5.125
 21
-14.999999999999986
 31
0.0
  0
LINE
  8
DXF
 62
0
 10
5.125
 20
-14.999999999999986
 30
0.0
 11
19.875
 21
-14.999999999999986
 31
0.0
  0
ENDBLK
  0
ENDSEC
  0
SECTION
  2
ENTITIES
  0
INSERT
  2
SHAPE2DVIEW003
  8
DXF
 62
0
 10
0.0
 20
0.0
 30
0.0
  0
ENDSEC
  0
EOF
