  0
SECTION
  2
HEADER
  9
$ACADVER
  1
AC1009
  9
$INSBASE
 10
0.0
 20
0.0
 30
0.0
  9
$EXTMIN
 10
0.0
 20
0.0
 30
0.0
  9
$EXTMAX
 10
0.0
 20
0.0
 30
0.0
  0
ENDSEC
  0
SECTION
  2
TABLES
  0
TABLE
  2
VPORT
 70
0
  0
ENDTAB
  0
TABLE
  2
LTYPE
 70
1
  0
LTYPE
  2
CONTINUOUS
 70
0
  3
Solid line
 72
65
 73
0
 40
0.0
  0
ENDTAB
  0
TABLE
  2
LAYER
 70
1
  0
LAYER
  2
0
 70
64
 62
7
  6
continuous
  0
ENDTAB
  0
TABLE
  2
STYLE
 70
1
  0
STYLE
  2
STANDARD
 70
0
 40
0
 41
1.0
 50
0.0
 71
0
 42
1
 3
ARIAL.TTF
 4

  0
ENDTAB
  0
TABLE
  2
VIEW
 70
0
  0
ENDTAB
  0
ENDSEC
  0
SECTION
  2
BLOCKS
  0
BLOCK
  8
DXF
  2
SHAPE2DVIEW001
 70
0
 10
0.0
 20
0.0
 30
0.0
  3
SHAPE2DVIEW001
  0
LINE
  8
DXF
 62
0
 10
13.874999999999908
 20
25.764255762587073
 30
0.0
 11
9.633008075688682
 21
23.315140583185737
 31
0.0
  0
ARC
  8
DXF
 62
0
 10
14.374999999999911
 20
24.898230358802635
 30
0.0
 40
1.0
 50
0.0
 51
120.00000000000021
  0
LINE
  8
DXF
 62
0
 10
9.63300807568868
 20
23.315140583185737
 30
0.0
 11
8.13300807568868
 21
25.913216794539053
 31
0.0
  0
LINE
  8
DXF
 62
0
 10
15.374999999999975
 20
20.0
 30
0.0
 11
15.374999999999913
 21
24.89823035880265
 31
0.0
  0
LINE
  8
DXF
 62
0
 10
8.13300807568868
 20
25.913216794539053
 30
0.0
 11
-4.857372981077871
 21
18.41321679453905
 31
0.0
  0
LINE
  8
DXF
 62
0
 10
18.37499999999997
 20
20.0
 30
0.0
 11
15.374999999999973
 21
20.0
 31
0.0
  0
LINE
  8
DXF
 62
0
 10
-4.857372981077871
 20
18.41321679453905
 30
0.0
 11
-3.3573729810778707
 21
15.81514058318573
 31
0.0
  0
LINE
  8
DXF
 62
0
 10
18.37499999999997
 20
5.0
 30
0.0
 11
18.37499999999997
 21
20.0
 31
0.0
  0
LINE
  8
DXF
 62
0
 10
-3.3573729810778703
 20
15.81514058318573
 30
0.0
 11
-12.017627018922266
 21
10.815140583185732
 31
0.0
  0
LINE
  8
DXF
 62
0
 10
15.374999999999975
 20
5.0
 30
0.0
 11
18.37499999999997
 21
5.0
 31
0.0
  0
LINE
  8
DXF
 62
0
 10
-12.017627018922267
 20
10.815140583185732
 30
0.0
 11
-13.517627018922267
 21
13.413216794539048
 31
0.0
  0
LINE
  8
DXF
 62
0
 10
15.374999999999975
 20
-5.0
 30
0.0
 11
15.374999999999975
 21
5.0
 31
0.0
  0
LINE
  8
DXF
 62
0
 10
-13.517627018922267
 20
13.413216794539048
 30
0.0
 11
-26.508008075688846
 21
5.913216794539042
 31
0.0
  0
LINE
  8
DXF
 62
0
 10
18.37499999999997
 20
-5.0
 30
0.0
 11
15.374999999999973
 21
-5.0
 31
0.0
  0
LINE
  8
DXF
 62
0
 10
-26.508008075688846
 20
5.913216794539042
 30
0.0
 11
-25.008008075688846
 21
3.3151405831857264
 31
0.0
  0
LINE
  8
DXF
 62
0
 10
18.37499999999997
 20
-20.0
 30
0.0
 11
18.37499999999997
 21
-5.0
 31
0.0
  0
LINE
  8
DXF
 62
0
 10
-25.008008075688846
 20
3.3151405831857264
 30
0.0
 11
-29.250000000000085
 21
0.8660254037844282
 31
0.0
  0
LINE
  8
DXF
 62
0
 10
15.374999999999975
 20
-20.0
 30
0.0
 11
18.37499999999997
 21
-20.0
 31
0.0
  0
ARC
  8
DXF
 62
0
 10
-28.75000000000009
 20
-1.3169332530429081e-14
 30
0.0
 40
1.0
 50
119.99999999999976
 51
-119.99999999999999
  0
LINE
  8
DXF
 62
0
 10
15.374999999999975
 20
-24.898230358802653
 30
0.0
 11
15.374999999999975
 21
-20.0
 31
0.0
  0
LINE
  8
DXF
 62
0
 10
-29.25000000000009
 20
-0.8660254037844526
 30
0.0
 11
-25.00800807568882
 21
-3.3151405831857774
 31
0.0
  0
ARC
  8
DXF
 62
0
 10
14.374999999999975
 20
-24.898230358802653
 30
0.0
 40
1.0
 50
-120.00000000000021
 51
-0.0
  0
LINE
  8
DXF
 62
0
 10
-25.00800807568882
 20
-3.315140583185777
 30
0.0
 11
-26.50800807568882
 21
-5.913216794539093
 31
0.0
  0
LINE
  8
DXF
 62
0
 10
9.633008075688737
 20
-23.31514058318576
 30
0.0
 11
13.874999999999972
 21
-25.76425576258709
 31
0.0
  0
LINE
  8
DXF
 62
0
 10
-26.50800807568882
 20
-5.913216794539093
 30
0.0
 11
-13.517627018922225
 21
-13.413216794539089
 31
0.0
  0
LINE
  8
DXF
 62
0
 10
8.133008075688737
 20
-25.91321679453908
 30
0.0
 11
9.633008075688737
 21
-23.31514058318576
 31
0.0
  0
LINE
  8
DXF
 62
0
 10
-13.517627018922225
 20
-13.413216794539089
 30
0.0
 11
-12.017627018922225
 21
-10.815140583185773
 31
0.0
  0
LINE
  8
DXF
 62
0
 10
-4.857372981077843
 20
-18.413216794539082
 30
0.0
 11
8.133008075688737
 21
-25.91321679453908
 31
0.0
  0
LINE
  8
DXF
 62
0
 10
-12.017627018922225
 20
-10.815140583185773
 30
0.0
 11
-3.3573729810778428
 21
-15.815140583185768
 31
0.0
  0
LINE
  8
DXF
 62
0
 10
-3.3573729810778423
 20
-15.815140583185768
 30
0.0
 11
-4.857372981077843
 21
-18.413216794539082
 31
0.0
  0
ENDBLK
  0
ENDSEC
  0
SECTION
  2
ENTITIES
  0
INSERT
  2
SHAPE2DVIEW001
  8
DXF
 62
0
 10
0.0
 20
0.0
 30
0.0
  0
ENDSEC
  0
EOF
